<svg xmlns="http://www.w3.org/2000/svg" width="920" height="520" viewBox="0 0 920 520">
<rect width="100%" height="100%" fill="#ffffff"/>
<text x="460.00" y="34.00" fill="#1f2937" font-family="Arial, sans-serif" font-size="22" font-weight="700" text-anchor="middle">Sync vs Outbox/Kafka order API p95 latency</text>
<line x1="90.00" y1="440.00" x2="880.00" y2="440.00" stroke="#374151" stroke-width="1"/>
<line x1="90.00" y1="70.00" x2="90.00" y2="440.00" stroke="#374151" stroke-width="1"/>
<text x="460.00" y="496.00" fill="#374151" font-family="Arial, sans-serif" font-size="14" font-weight="600" text-anchor="middle">External mock API delay (ms)</text>
<text x="28.00" y="260.00" fill="#374151" font-family="Arial, sans-serif" font-size="14" font-weight="600" text-anchor="middle" transform="rotate(-90 28 260.0)">p95 latency (ms)</text>
<line x1="90.00" y1="70.00" x2="880.00" y2="70.00" stroke="#e5e7eb" stroke-width="1"/>
<text x="78.00" y="75.00" fill="#6b7280" font-family="Arial, sans-serif" font-size="12" font-weight="400" text-anchor="end">1235</text>
<line x1="90.00" y1="144.00" x2="880.00" y2="144.00" stroke="#e5e7eb" stroke-width="1"/>
<text x="78.00" y="149.00" fill="#6b7280" font-family="Arial, sans-serif" font-size="12" font-weight="400" text-anchor="end">988</text>
<line x1="90.00" y1="218.00" x2="880.00" y2="218.00" stroke="#e5e7eb" stroke-width="1"/>
<text x="78.00" y="223.00" fill="#6b7280" font-family="Arial, sans-serif" font-size="12" font-weight="400" text-anchor="end">741</text>
<line x1="90.00" y1="292.00" x2="880.00" y2="292.00" stroke="#e5e7eb" stroke-width="1"/>
<text x="78.00" y="297.00" fill="#6b7280" font-family="Arial, sans-serif" font-size="12" font-weight="400" text-anchor="end">494</text>
<line x1="90.00" y1="366.00" x2="880.00" y2="366.00" stroke="#e5e7eb" stroke-width="1"/>
<text x="78.00" y="371.00" fill="#6b7280" font-family="Arial, sans-serif" font-size="12" font-weight="400" text-anchor="end">247</text>
<line x1="90.00" y1="440.00" x2="880.00" y2="440.00" stroke="#e5e7eb" stroke-width="1"/>
<text x="78.00" y="445.00" fill="#6b7280" font-family="Arial, sans-serif" font-size="12" font-weight="400" text-anchor="end">0</text>
<line x1="90.00" y1="440.00" x2="90.00" y2="446.00" stroke="#6b7280" stroke-width="1"/>
<text x="90.00" y="464.00" fill="#6b7280" font-family="Arial, sans-serif" font-size="12" font-weight="400" text-anchor="middle">0</text>
<line x1="327.00" y1="440.00" x2="327.00" y2="446.00" stroke="#6b7280" stroke-width="1"/>
<text x="327.00" y="464.00" fill="#6b7280" font-family="Arial, sans-serif" font-size="12" font-weight="400" text-anchor="middle">300</text>
<line x1="880.00" y1="440.00" x2="880.00" y2="446.00" stroke="#6b7280" stroke-width="1"/>
<text x="880.00" y="464.00" fill="#6b7280" font-family="Arial, sans-serif" font-size="12" font-weight="400" text-anchor="middle">1000</text>
<line x1="90" y1="48" x2="118" y2="48" stroke="#d94841" stroke-width="4"/>
<text x="126.00" y="53.00" fill="#374151" font-family="Arial, sans-serif" font-size="13" font-weight="600" text-anchor="start">sync</text>
<polyline points="90.00,429.66 327.00,332.27 880.00,118.26" fill="none" stroke="#d94841" stroke-width="4" stroke-linecap="round" stroke-linejoin="round"/>
<circle cx="90.00" cy="429.66" r="5" fill="#d94841"/>
<circle cx="327.00" cy="332.27" r="5" fill="#d94841"/>
<circle cx="880.00" cy="118.26" r="5" fill="#d94841"/>
<line x1="230" y1="48" x2="258" y2="48" stroke="#2f855a" stroke-width="4"/>
<text x="266.00" y="53.00" fill="#374151" font-family="Arial, sans-serif" font-size="13" font-weight="600" text-anchor="start">outbox</text>
<polyline points="90.00,431.14 327.00,431.31 880.00,431.15" fill="none" stroke="#2f855a" stroke-width="4" stroke-linecap="round" stroke-linejoin="round"/>
<circle cx="90.00" cy="431.14" r="5" fill="#2f855a"/>
<circle cx="327.00" cy="431.31" r="5" fill="#2f855a"/>
<circle cx="880.00" cy="431.15" r="5" fill="#2f855a"/>
</svg>
